<svg width="742" height="277" viewBox="0 0 742 277" fill="none" xmlns="http://www.w3.org/2000/svg">
<path d="M251.484 98.374H310.671V141.614H251.484V239.718H209.051V0H329.859V43.241H251.484V98.374ZM400.125 201.881C424.719 202.42 449.581 204.315 473.635 205.664V248.365C434.989 245.931 396.342 243.502 356.885 242.689V0H400.125V201.881ZM510.119 251.338C523.902 252.15 538.496 252.961 552.549 254.58V0H510.119V251.338ZM742 0L687.137 131.615L742 276.742C725.783 274.58 709.568 271.607 693.352 268.904L662.274 188.91L630.657 262.42C614.979 259.715 599.845 258.904 584.173 256.742L639.845 129.992L589.576 0H636.058L664.435 72.699L694.705 0L742 0Z" fill="#D81F26"/>
<path d="M0 0H62.318L90.1031 198.969H90.8969L118.682 0H181V242L139.719 250V67.5143H138.925L110 254L69 261L38.8991 67.5143H38.1053V268.5L0 276.5V0Z" fill="#D81F26"/>
</svg>
